<svg width="80" height="80" viewBox="0 0 80 80" fill="none" xmlns="http://www.w3.org/2000/svg">
<g clip-path="url(#clip0_37_1435)">
<path d="M50 26.6667H50.0333" stroke="black" stroke-width="2" stroke-linecap="round" stroke-linejoin="round"/>
<path d="M41.6667 70H20C17.3478 70 14.8043 68.9464 12.9289 67.0711C11.0536 65.1957 10 62.6522 10 60V20C10 17.3478 11.0536 14.8043 12.9289 12.9289C14.8043 11.0536 17.3478 10 20 10H60C62.6522 10 65.1957 11.0536 67.0711 12.9289C68.9464 14.8043 70 17.3478 70 20V41.6667" stroke="black" stroke-width="2" stroke-linecap="round" stroke-linejoin="round"/>
<path d="M10 53.3333L26.6667 36.6667C29.76 33.69 33.5733 33.69 36.6667 36.6667L50 50" stroke="black" stroke-width="2" stroke-linecap="round" stroke-linejoin="round"/>
<path d="M46.666 46.6667L49.9993 43.3333C52.2327 41.1867 54.8327 40.5867 57.2727 41.5333" stroke="black" stroke-width="2" stroke-linecap="round" stroke-linejoin="round"/>
<path d="M53.334 63.3333H73.334" stroke="black" stroke-width="2" stroke-linecap="round" stroke-linejoin="round"/>
<path d="M63.334 53.3333V73.3333" stroke="black" stroke-width="2" stroke-linecap="round" stroke-linejoin="round"/>
</g>
<defs>
<clipPath id="clip0_37_1435">
<rect width="80" height="80" fill="white"/>
</clipPath>
</defs>
</svg>
